<?xml version="1.0" standalone="no"?>
<!DOCTYPE svg PUBLIC "-//W3C//DTD SVG 20010904//EN"
 "http://www.w3.org/TR/2001/REC-SVG-20010904/DTD/svg10.dtd">
<svg version="1.0" xmlns="http://www.w3.org/2000/svg"
 width="500.000000pt" height="500.000000pt" viewBox="0 0 500.000000 500.000000"
 preserveAspectRatio="xMidYMid meet">

<g transform="translate(0.000000,500.000000) scale(0.100000,-0.100000)"
fill="#000000" stroke="none">
<path d="M0 2500 l0 -2500 2500 0 2500 0 0 2500 0 2500 -2500 0 -2500 0 0
-2500z m2877 2231 c619 -120 1091 -583 1224 -1202 33 -152 34 -447 1 -602
-132 -626 -611 -1094 -1242 -1212 -143 -27 -400 -26 -548 4 -315 61 -585 204
-807 426 -213 213 -354 476 -421 785 -15 68 -19 128 -19 295 0 183 3 223 23
314 74 331 250 631 492 839 84 72 227 170 310 212 153 77 366 141 531 159 119
14 338 5 456 -18z m-1177 -3243 c0 -7 -7 -112 -15 -233 -8 -121 -15 -223 -15
-227 0 -5 -16 -8 -35 -8 -35 0 -35 0 -35 45 0 43 -1 45 -29 45 -26 0 -32 -6
-47 -45 -15 -41 -20 -45 -50 -45 -19 0 -34 2 -34 5 0 4 148 415 165 458 9 21
95 25 95 5z m245 -98 c-4 -60 -5 -110 -3 -110 3 0 24 50 48 110 l43 110 44 0
c28 0 43 -4 43 -12 -1 -7 -22 -114 -48 -238 l-48 -225 -36 -3 -36 -3 24 112
c14 62 23 117 21 123 -2 5 -23 -45 -46 -112 -35 -99 -47 -122 -63 -122 -17 0
-18 6 -14 58 11 123 18 227 13 222 -2 -3 -17 -67 -32 -142 l-28 -138 -34 0
c-18 0 -33 4 -33 9 0 11 89 440 95 459 3 7 22 12 51 12 l46 0 -7 -110z m425
88 c0 -46 -21 -394 -26 -425 -4 -30 -8 -33 -41 -33 l-36 0 5 45 6 45 -33 0
c-30 0 -35 -4 -47 -42 -13 -40 -18 -43 -53 -46 -33 -3 -37 -1 -30 15 4 10 43
118 87 241 l81 222 44 0 c38 0 43 -3 43 -22z m225 10 c2 -7 7 -67 11 -133 l7
-120 12 55 c7 30 20 90 30 133 l16 77 35 0 c29 0 34 -3 30 -17 -7 -24 -96
-446 -96 -456 0 -4 -15 -7 -34 -7 l-34 0 -6 83 c-4 45 -7 100 -9 122 -4 52
-11 34 -38 -97 l-22 -108 -33 0 c-19 0 -34 2 -34 3 0 5 90 427 97 455 4 16 12
22 34 22 16 0 31 -6 34 -12z m388 5 c2 -5 -2 -93 -9 -198 -7 -104 -13 -209
-13 -232 -1 -42 -2 -43 -36 -43 -35 0 -35 0 -35 46 0 45 0 45 -32 42 -27 -3
-33 -9 -46 -45 -12 -39 -17 -43 -48 -43 -19 0 -34 4 -34 8 0 6 102 290 165
460 5 13 81 17 88 5z m307 -13 c11 -11 20 -32 20 -47 0 -52 -63 -332 -82 -363
-48 -79 -168 -69 -168 15 0 46 58 313 77 352 28 60 112 84 153 43z m300 3 c-1
-51 -11 -63 -55 -63 -47 0 -50 -3 -60 -74 l-7 -46 32 0 c27 0 30 -3 26 -20 -3
-11 -8 -29 -11 -39 -4 -13 -16 -21 -37 -23 -29 -3 -33 -7 -44 -58 -7 -30 -13
-58 -14 -62 0 -5 21 -8 46 -8 38 0 45 -3 40 -16 -3 -9 -6 -24 -6 -35 0 -17 -8
-19 -86 -19 -65 0 -85 3 -81 13 2 6 26 114 53 240 l48 227 78 0 c68 0 78 -2
78 -17z m170 7 c0 -6 -18 -94 -40 -196 -22 -103 -40 -190 -40 -195 0 -5 17 -9
38 -9 47 0 50 -2 44 -40 l-4 -30 -85 0 c-83 0 -85 0 -80 23 7 27 97 449 97
454 0 1 16 3 35 3 19 0 35 -5 35 -10z m-2096 -766 c11 -28 6 -120 -6 -132 -7
-7 -22 -12 -35 -12 -22 0 -23 3 -23 80 l0 80 29 0 c17 0 31 -6 35 -16z m86 6
c0 -5 -9 -10 -20 -10 -14 0 -20 -7 -20 -24 0 -20 4 -23 23 -19 l22 5 -22 -20
c-29 -26 -31 -62 -3 -62 11 0 20 -4 20 -10 0 -5 -13 -10 -30 -10 l-30 0 0 73
c0 41 3 77 7 80 10 11 53 8 53 -3z m36 -35 c8 -56 20 -58 27 -4 5 39 13 57 21
48 6 -6 -20 -148 -28 -156 -11 -11 -24 16 -31 66 -3 25 -9 56 -12 69 -3 12 0
22 5 22 6 0 14 -20 18 -45z m124 35 c0 -5 -9 -10 -21 -10 -15 0 -20 -5 -17
-22 2 -16 9 -22 21 -20 24 4 22 -15 -3 -23 -13 -4 -20 -15 -20 -31 0 -17 5
-24 20 -24 11 0 20 -4 20 -10 0 -5 -13 -10 -30 -10 l-30 0 0 64 c0 35 3 71 6
80 7 17 54 22 54 6z m40 -60 c0 -63 2 -70 20 -70 11 0 20 -4 20 -10 0 -5 -13
-10 -30 -10 l-30 0 0 80 c0 47 4 80 10 80 6 0 10 -30 10 -70z m115 -10 c0 -73
-1 -75 -25 -75 -24 0 -25 3 -28 64 -4 78 1 93 30 89 22 -3 23 -8 23 -78z m93
38 c2 -29 -1 -39 -17 -48 -14 -7 -21 -21 -21 -40 0 -17 -4 -30 -10 -30 -6 0
-10 34 -10 81 l0 80 28 -3 c23 -3 27 -8 30 -40z m90 0 c2 -29 -1 -39 -17 -48
-14 -7 -21 -21 -21 -40 0 -17 -4 -30 -10 -30 -6 0 -10 34 -10 81 l0 80 28 -3
c23 -3 27 -8 30 -40z m82 32 c0 -5 -9 -10 -21 -10 -15 0 -20 -5 -17 -22 2 -16
9 -22 21 -20 24 4 22 -15 -3 -23 -13 -4 -20 -15 -20 -31 0 -17 5 -24 20 -24
11 0 20 -4 20 -10 0 -5 -13 -10 -30 -10 l-30 0 0 64 c0 35 3 71 6 80 7 17 54
22 54 6z m40 -60 c0 -56 3 -70 15 -70 12 0 15 14 15 70 0 42 4 70 10 70 7 0
10 -27 8 -71 -3 -75 -17 -99 -52 -86 -13 5 -16 21 -16 82 0 43 4 75 10 75 6 0
10 -30 10 -70z m134 54 c10 -25 7 -62 -5 -66 -8 -3 -6 -15 4 -41 10 -22 12
-37 6 -37 -6 0 -16 14 -22 30 -6 17 -15 30 -19 30 -4 0 -8 -13 -8 -30 0 -16
-4 -30 -10 -30 -6 0 -10 33 -10 80 l0 80 29 0 c17 0 31 -6 35 -16z m126 6 c0
-5 -7 -10 -15 -10 -9 0 -15 -9 -15 -25 0 -18 4 -23 15 -19 8 4 15 2 15 -4 0
-5 -7 -12 -15 -16 -9 -3 -15 -19 -15 -41 0 -19 -4 -35 -10 -35 -6 0 -10 33
-10 80 0 79 0 80 25 80 14 0 25 -4 25 -10z m40 -60 c0 -77 16 -95 24 -27 3 23
8 56 10 72 2 17 3 -6 2 -50 -1 -78 -2 -80 -26 -80 -24 0 -25 2 -28 78 -2 48 1
77 8 77 6 0 10 -28 10 -70z m90 0 c0 -63 2 -70 20 -70 11 0 20 -4 20 -10 0 -5
-13 -10 -30 -10 l-30 0 0 80 c0 47 4 80 10 80 6 0 10 -30 10 -70z m80 0 c0
-56 3 -70 15 -70 8 0 15 -4 15 -10 0 -5 -11 -10 -25 -10 -25 0 -25 1 -25 80 0
47 4 80 10 80 6 0 10 -30 10 -70z m158 51 c3 -9 -2 -11 -17 -6 -18 5 -21 2
-21 -20 0 -23 2 -24 21 -15 19 11 20 9 17 -42 -3 -46 -6 -53 -26 -56 -22 -3
-42 22 -27 36 4 4 10 1 12 -5 9 -24 23 -13 23 17 0 28 -2 30 -20 20 -19 -10
-20 -8 -20 40 0 50 1 51 27 48 14 -2 28 -9 31 -17z m92 9 c0 -5 -4 -10 -10
-10 -6 0 -10 -30 -10 -70 0 -40 -4 -70 -10 -70 -6 0 -10 30 -10 70 0 56 -3 70
-15 70 -8 0 -15 5 -15 10 0 6 16 10 35 10 19 0 35 -4 35 -10z m76 -75 c1 -47
-1 -66 -5 -47 -8 43 -25 46 -29 5 -6 -62 -22 -33 -22 40 0 80 4 89 35 85 18
-3 20 -11 21 -83z m92 60 c3 -16 1 -18 -9 -7 -23 22 -29 13 -29 -48 0 -60 10
-75 30 -42 9 15 10 14 8 -8 -2 -19 -9 -25 -28 -25 -24 0 -25 3 -28 64 -2 35
-1 70 2 78 9 21 50 12 54 -12z m52 -2 l1 -28 15 28 c20 38 38 34 18 -4 -15
-29 -14 -34 5 -80 11 -27 15 -49 10 -49 -6 0 -15 14 -20 30 -6 17 -15 30 -20
30 -5 0 -9 -13 -9 -30 0 -16 -4 -30 -10 -30 -6 0 -10 33 -10 80 0 47 4 80 10
80 6 0 10 -12 10 -27z"/>
<path d="M2406 4629 c-307 -42 -592 -185 -816 -409 -195 -194 -314 -411 -387
-705 -25 -102 -25 -469 0 -575 75 -317 224 -573 447 -770 191 -168 409 -277
662 -332 147 -31 418 -31 565 0 714 154 1185 778 1132 1502 -46 624 -511 1143
-1144 1275 -95 20 -359 28 -459 14z m-160 -705 c22 -8 57 -23 79 -33 22 -10
61 -26 88 -36 26 -10 47 -21 47 -25 0 -4 -36 -21 -80 -39 -43 -17 -120 -49
-169 -70 l-90 -39 -48 18 c-27 10 -75 32 -108 47 -33 16 -70 33 -83 39 -20 8
-2 18 140 81 90 39 168 72 174 72 6 1 29 -6 50 -15z m542 -230 l154 -68 -119
-56 c-65 -31 -144 -66 -175 -79 l-57 -23 -93 40 c-186 80 -261 119 -241 125
10 3 86 35 168 72 110 48 158 65 180 61 17 -2 99 -35 183 -72z m-920 -13 c37
-15 97 -41 135 -57 l67 -28 0 -233 c0 -128 -2 -233 -4 -233 -3 0 -51 22 -108
48 -57 27 -118 54 -135 61 l-33 13 0 229 c0 126 3 229 6 229 3 0 36 -13 72
-29z m1532 -198 l-1 -228 -111 -50 c-61 -27 -123 -56 -139 -63 l-29 -12 0 234
0 234 78 32 c42 18 102 43 132 56 30 13 58 23 63 24 4 0 7 -102 7 -227z m-380
-163 l0 -230 -50 -25 c-55 -28 -318 -145 -325 -145 -3 0 -4 104 -3 232 l3 232
137 61 c76 33 159 70 185 82 26 11 49 22 51 22 1 1 2 -102 2 -229z m-793 -369
c26 -10 93 -40 148 -66 55 -26 116 -53 135 -60 l35 -12 3 -149 c1 -82 -1 -186
-5 -230 l-8 -82 -181 80 -182 80 -5 66 c-4 58 -4 166 2 345 0 26 3 47 6 47 2
0 26 -9 52 -19z"/>
<path d="M1596 1275 c-10 -33 -21 -66 -23 -72 -3 -8 3 -13 15 -13 17 0 22 9
27 54 11 83 2 97 -19 31z"/>
<path d="M2263 1257 c-20 -65 -21 -67 -2 -67 22 0 32 30 27 90 l-3 44 -22 -67z"/>
<path d="M2881 1269 c-26 -77 -26 -79 -2 -79 15 0 19 11 25 66 4 37 5 68 3 71
-3 2 -14 -24 -26 -58z"/>
<path d="M3200 1408 c-8 -19 -70 -296 -70 -313 0 -14 39 -2 44 13 18 64 65
305 60 313 -9 16 -24 10 -34 -13z"/>
<path d="M1620 660 c0 -47 3 -60 15 -60 12 0 15 13 15 60 0 47 -3 60 -15 60
-12 0 -15 -13 -15 -60z"/>
<path d="M2030 660 c0 -33 4 -60 9 -60 12 0 23 64 15 94 -11 46 -24 28 -24
-34z"/>
<path d="M2120 689 c0 -17 4 -28 10 -24 6 3 10 17 10 31 0 13 -4 24 -10 24 -5
0 -10 -14 -10 -31z"/>
<path d="M2210 689 c0 -17 4 -28 10 -24 6 3 10 17 10 31 0 13 -4 24 -10 24 -5
0 -10 -14 -10 -31z"/>
<path d="M2460 695 c0 -16 6 -25 15 -25 9 0 15 9 15 25 0 16 -6 25 -15 25 -9
0 -15 -9 -15 -25z"/>
<path d="M3130 695 c0 -17 5 -25 13 -22 6 2 12 12 12 22 0 10 -6 20 -12 23 -8
2 -13 -6 -13 -23z"/>
</g>
</svg>
