<?xml version="1.0" standalone="no"?>
<!DOCTYPE svg PUBLIC "-//W3C//DTD SVG 20010904//EN"
 "http://www.w3.org/TR/2001/REC-SVG-20010904/DTD/svg10.dtd">
<svg version="1.0" xmlns="http://www.w3.org/2000/svg"
 width="50.000000pt" height="50.000000pt" viewBox="0 0 50.000000 50.000000"
 preserveAspectRatio="xMidYMid meet">

<g transform="translate(0.000000,50.000000) scale(0.100000,-0.100000)"
fill="#000000" stroke="none">
<path d="M140 474 c0 -3 25 -28 56 -56 41 -38 54 -57 52 -74 -4 -30 56 -94 82
-87 14 4 19 -1 22 -23 2 -15 15 -36 31 -47 l27 -21 40 39 c22 22 40 44 40 50
0 16 -41 52 -65 57 -11 2 -21 12 -23 23 -2 11 -27 43 -55 72 -40 41 -60 54
-99 63 -53 11 -108 13 -108 4z"/>
<path d="M122 207 c-56 -56 -102 -107 -102 -113 0 -13 53 -64 66 -64 5 0 55
46 112 103 l102 103 -38 37 -38 37 -102 -103z"/>
</g>
</svg>
