<?xml version="1.0" standalone="no"?>
<!DOCTYPE svg PUBLIC "-//W3C//DTD SVG 20010904//EN"
 "http://www.w3.org/TR/2001/REC-SVG-20010904/DTD/svg10.dtd">
<svg version="1.0" xmlns="http://www.w3.org/2000/svg"
 width="50.000000pt" height="50.000000pt" viewBox="0 0 50.000000 50.000000"
 preserveAspectRatio="xMidYMid meet">

<g transform="translate(0.000000,50.000000) scale(0.100000,-0.100000)"
fill="#000000" stroke="none">
<path d="M170 477 c-49 -16 -133 -102 -148 -153 -28 -94 -8 -169 63 -239 101
-102 229 -102 330 0 102 101 102 229 0 330 -70 71 -152 91 -245 62z m110 -42
c0 -32 -2 -35 -30 -35 -28 0 -30 3 -30 35 0 32 2 35 30 35 28 0 30 -3 30 -35z
m-175 -67 c28 -12 30 -20 15 -49 -10 -18 -13 -18 -40 -4 -34 17 -34 19 -20 46
13 22 12 22 45 7z m224 -16 c58 -43 64 -140 12 -193 -76 -75 -204 -30 -217 77
-14 110 115 183 205 116z m112 6 c10 -18 8 -24 -12 -39 -32 -24 -37 -24 -51 6
-10 21 -8 28 8 40 27 20 41 18 55 -7z m-324 -220 c-29 -23 -44 -22 -57 1 -14
27 -13 29 18 45 25 14 28 13 44 -7 16 -21 16 -23 -5 -39z m308 46 c29 -19 30
-24 12 -48 -11 -15 -17 -16 -40 -5 -30 13 -32 21 -17 50 13 23 14 23 45 3z
m-145 -119 c0 -32 -2 -35 -30 -35 -28 0 -30 3 -30 35 0 32 2 35 30 35 28 0 30
-3 30 -35z"/>
</g>
</svg>
