<?xml version="1.0" standalone="no"?>
<!DOCTYPE svg PUBLIC "-//W3C//DTD SVG 20010904//EN"
 "http://www.w3.org/TR/2001/REC-SVG-20010904/DTD/svg10.dtd">
<svg version="1.0" xmlns="http://www.w3.org/2000/svg"
 width="50.000000pt" height="50.000000pt" viewBox="0 0 50.000000 50.000000"
 preserveAspectRatio="xMidYMid meet">

<g transform="translate(0.000000,50.000000) scale(0.100000,-0.100000)"
fill="#000000" stroke="none">
<path d="M367 486 c-51 -19 -67 -33 -88 -83 -17 -40 -20 -42 -49 -37 -20 4
-36 2 -48 -8 -9 -8 -39 -23 -66 -33 -68 -25 -121 -74 -112 -103 10 -30 46 -29
102 4 24 14 65 28 91 30 26 3 53 10 60 16 7 6 13 9 14 7 9 -51 4 -143 -10
-184 -20 -58 -17 -82 10 -90 23 -8 45 8 63 44 21 43 48 172 42 201 -4 23 1 32
28 51 18 13 47 41 65 61 l33 38 -28 10 c-15 6 -40 8 -56 5 -38 -9 -36 8 7 42
19 15 35 31 35 36 0 11 -51 7 -93 -7z m12 -51 c-16 -26 -20 -44 -15 -71 11
-58 -24 -128 -55 -109 -4 3 -13 21 -18 40 -20 75 31 175 91 175 16 0 16 -3 -3
-35z m85 -43 c5 -9 -61 -79 -67 -71 -3 2 -7 16 -10 30 -5 21 -2 28 16 37 27
13 54 15 61 4z m-201 -72 c3 -11 2 -20 -3 -20 -4 0 -10 9 -13 20 -3 11 -2 20
3 20 4 0 10 -9 13 -20z"/>
<path d="M314 339 c-10 -17 13 -36 27 -22 12 12 4 33 -11 33 -5 0 -12 -5 -16
-11z"/>
</g>
</svg>
