<?xml version="1.0" standalone="no"?>
<!DOCTYPE svg PUBLIC "-//W3C//DTD SVG 20010904//EN"
 "http://www.w3.org/TR/2001/REC-SVG-20010904/DTD/svg10.dtd">
<svg version="1.0" xmlns="http://www.w3.org/2000/svg"
 width="50.000000pt" height="50.000000pt" viewBox="0 0 50.000000 50.000000"
 preserveAspectRatio="xMidYMid meet">

<g transform="translate(0.000000,50.000000) scale(0.100000,-0.100000)"
fill="#000000" stroke="none">
<path d="M20 340 c0 -133 1 -140 20 -140 11 0 20 5 20 10 0 6 -4 10 -10 10 -6
0 -10 47 -10 120 l0 120 210 0 210 0 0 -120 c0 -73 -4 -120 -10 -120 -5 0 -10
-4 -10 -10 0 -5 9 -10 20 -10 19 0 20 7 20 140 l0 140 -230 0 -230 0 0 -140z"/>
<path d="M260 395 c0 -21 5 -25 30 -25 25 0 30 4 30 25 0 21 -5 25 -30 25 -25
0 -30 -4 -30 -25z"/>
<path d="M180 390 c0 -16 7 -20 30 -20 23 0 30 4 30 20 0 16 -7 20 -30 20 -23
0 -30 -4 -30 -20z"/>
<path d="M180 330 c0 -16 7 -20 30 -20 23 0 30 4 30 20 0 16 -7 20 -30 20 -23
0 -30 -4 -30 -20z"/>
<path d="M260 325 c0 -21 5 -25 30 -25 25 0 30 4 30 25 0 21 -5 25 -30 25 -25
0 -30 -4 -30 -25z"/>
<path d="M110 271 c0 -5 16 -11 35 -13 24 -3 35 0 35 9 0 8 -13 13 -35 13 -19
0 -35 -4 -35 -9z"/>
<path d="M320 267 c0 -9 11 -12 35 -9 19 2 35 8 35 13 0 5 -16 9 -35 9 -22 0
-35 -5 -35 -13z"/>
<path d="M92 217 c-15 -16 -22 -35 -21 -58 1 -19 -1 -52 -5 -74 -9 -46 9 -71
41 -61 23 8 103 126 103 153 0 27 -41 63 -71 63 -14 0 -35 -10 -47 -23z m58
-17 c0 -5 -4 -10 -10 -10 -5 0 -10 5 -10 10 0 6 5 10 10 10 6 0 10 -4 10 -10z
m-30 -30 c0 -5 -4 -10 -10 -10 -5 0 -10 5 -10 10 0 6 5 10 10 10 6 0 10 -4 10
-10z m60 0 c0 -5 -4 -10 -10 -10 -5 0 -10 5 -10 10 0 6 5 10 10 10 6 0 10 -4
10 -10z m-30 -30 c0 -5 -4 -10 -10 -10 -5 0 -10 5 -10 10 0 6 5 10 10 10 6 0
10 -4 10 -10z"/>
<path d="M216 215 c11 -17 15 -37 11 -61 -8 -46 14 -74 38 -51 10 10 12 26 8
51 -4 24 0 44 11 61 l16 25 -50 0 -50 0 16 -25z"/>
<path d="M312 217 c-12 -13 -22 -32 -22 -42 0 -25 81 -143 103 -151 32 -10 50
15 41 61 -4 22 -6 55 -5 74 3 69 -72 106 -117 58z m58 -17 c0 -5 -4 -10 -10
-10 -5 0 -10 5 -10 10 0 6 5 10 10 10 6 0 10 -4 10 -10z m-30 -30 c0 -5 -4
-10 -10 -10 -5 0 -10 5 -10 10 0 6 5 10 10 10 6 0 10 -4 10 -10z m60 0 c0 -5
-4 -10 -10 -10 -5 0 -10 5 -10 10 0 6 5 10 10 10 6 0 10 -4 10 -10z m-30 -30
c0 -5 -4 -10 -10 -10 -5 0 -10 5 -10 10 0 6 5 10 10 10 6 0 10 -4 10 -10z"/>
<path d="M184 85 c-4 -9 -2 -21 4 -27 15 -15 44 -1 40 19 -4 23 -36 29 -44 8z"/>
<path d="M274 85 c-4 -9 -2 -21 4 -27 15 -15 44 -1 40 19 -4 23 -36 29 -44 8z"/>
</g>
</svg>
