<?xml version="1.0" standalone="no"?>
<!DOCTYPE svg PUBLIC "-//W3C//DTD SVG 20010904//EN"
 "http://www.w3.org/TR/2001/REC-SVG-20010904/DTD/svg10.dtd">
<svg version="1.0" xmlns="http://www.w3.org/2000/svg"
 width="500.000000pt" height="500.000000pt" viewBox="0 0 500.000000 500.000000"
 preserveAspectRatio="xMidYMid meet">

<g transform="translate(0.000000,500.000000) scale(0.100000,-0.100000)"
fill="#000000" stroke="none">
<path d="M2480 4490 c-427 -45 -816 -313 -1007 -695 -100 -198 -137 -356 -136
-575 1 -346 107 -618 343 -882 157 -175 447 -338 675 -377 114 -20 112 -19 58
-53 -82 -52 -143 -109 -174 -162 -34 -60 -36 -85 -10 -117 28 -34 104 -34 132
0 10 13 19 30 19 39 0 13 -2 13 -17 0 -27 -23 -52 -29 -74 -18 -61 33 38 162
184 239 55 29 123 49 133 39 2 -3 -26 -56 -64 -119 -37 -63 -82 -139 -100
-170 -25 -43 -47 -67 -96 -98 -77 -51 -154 -125 -162 -157 -8 -31 2 -70 19
-77 50 -19 120 36 189 150 35 56 66 94 90 109 61 39 87 96 29 64 -12 -6 -21
-9 -21 -6 0 7 130 226 162 274 26 37 33 42 68 42 102 0 344 66 463 126 468
237 757 746 707 1248 -32 322 -153 589 -365 801 -276 277 -661 415 -1045 375z
m335 -85 c248 -43 496 -175 672 -356 161 -168 280 -407 318 -639 63 -390 -60
-769 -339 -1047 -187 -185 -392 -292 -649 -338 -130 -23 -353 -17 -479 14
-484 117 -842 508 -919 1003 -17 110 -6 361 19 458 62 232 168 416 335 577
234 225 511 340 827 342 71 1 164 -6 215 -14z m-484 -2958 c-31 -46 -85 -97
-102 -97 -14 0 -10 23 9 45 28 32 115 106 120 101 2 -3 -10 -25 -27 -49z"/>
<path d="M2383 4122 l-203 -96 0 -73 c0 -72 0 -73 33 -89 17 -9 55 -34 83 -55
52 -40 76 -51 54 -24 -10 12 -10 18 0 30 7 8 18 15 24 15 6 0 4 -5 -4 -10 -11
-7 -12 -14 -4 -27 8 -14 6 -21 -14 -38 -17 -14 -23 -28 -19 -38 10 -27 30 -20
25 8 -4 16 -1 25 8 25 7 0 20 7 28 16 9 8 19 13 23 11 5 -3 9 8 10 24 2 21 -2
29 -15 29 -14 0 -14 2 -3 9 8 5 10 14 6 21 -5 9 -4 11 3 6 8 -5 12 2 12 21 0
22 -2 25 -10 13 -6 -9 -10 -10 -10 -3 0 6 4 14 9 18 5 3 8 28 5 55 -5 58 9 71
59 52 24 -9 36 -8 69 9 l39 20 67 -32 c37 -17 77 -40 88 -51 33 -29 40 -3 9
28 -17 17 -33 24 -46 21 -10 -3 -19 -1 -19 4 0 17 47 9 65 -11 14 -16 20 -17
27 -8 5 8 8 3 8 -15 0 -16 4 -26 9 -23 5 4 7 -3 4 -14 -7 -28 15 -26 27 3 7
17 9 18 9 5 1 -11 9 -18 21 -18 24 0 38 44 20 65 -8 10 -9 15 -1 15 13 0 25
-44 18 -64 -4 -10 -1 -13 9 -9 8 3 14 2 12 -3 -6 -21 28 -54 54 -54 28 0 28 0
28 68 l0 68 -197 93 c-109 51 -202 95 -208 96 -5 2 -101 -40 -212 -93z m37
-316 c0 -3 -4 -8 -10 -11 -5 -3 -10 -1 -10 4 0 6 5 11 10 11 6 0 10 -2 10 -4z"/>
<path d="M2430 4000 c0 -11 5 -20 10 -20 6 0 10 5 10 10 0 6 9 10 21 10 11 0
17 5 14 10 -3 6 -17 10 -31 10 -17 0 -24 -5 -24 -20z"/>
<path d="M1985 3933 c-49 -24 -79 -42 -65 -39 14 3 58 6 98 6 l72 0 0 40 c0
22 -3 40 -7 39 -5 0 -48 -21 -98 -46z"/>
<path d="M3090 3931 c0 -46 2 -50 28 -54 l27 -4 -27 -2 -28 -1 0 -203 c0 -145
3 -206 12 -215 9 -9 9 -12 0 -12 -7 0 -11 -15 -10 -39 1 -37 3 -39 22 -29 12
6 18 7 14 3 -4 -5 -2 -15 5 -24 10 -14 10 -14 -5 -3 -18 14 -43 7 -32 -9 3 -5
9 -7 14 -4 4 3 11 -10 14 -28 3 -19 13 -42 21 -53 13 -18 14 -17 21 14 4 19
10 29 14 23 11 -19 -1 -69 -20 -86 -17 -16 -18 -16 -14 2 7 30 -10 47 -32 33
-15 -9 -18 -21 -15 -56 3 -40 5 -43 19 -32 14 11 13 9 -1 -12 -20 -29 -24 -85
-4 -74 10 6 10 4 0 -7 -9 -9 -13 -52 -13 -139 0 -143 -20 -238 -70 -334 l-30
-59 25 -37 c14 -21 37 -48 51 -61 l24 -23 50 49 50 49 2 201 2 200 6 -190 5
-190 32 50 c78 121 119 256 126 409 4 85 2 98 -14 106 -25 14 -37 12 -19 -3
15 -12 22 -77 8 -77 -5 0 -8 13 -8 28 0 37 -30 67 -50 49 -8 -7 -11 -8 -6 0 4
7 -6 11 -32 10 l-37 -2 -5 -95 -5 -95 -5 99 c-5 106 -2 120 23 110 10 -3 29
-3 43 0 22 6 24 9 12 23 -9 12 -9 15 0 9 18 -11 15 4 -5 27 -17 19 -17 19 2
16 11 -3 21 -13 23 -24 6 -28 22 -46 36 -38 6 4 17 8 25 8 8 0 17 7 19 15 4
12 2 13 -10 3 -12 -10 -14 -10 -13 5 1 9 8 29 15 45 10 21 11 33 2 52 -7 16
-8 25 -1 25 6 0 9 70 9 194 -1 121 3 202 9 215 15 28 60 61 83 61 33 0 18 42
-22 62 -33 17 -35 17 -42 -1 -9 -26 -39 -41 -80 -41 -80 -1 -108 -42 -118
-175 l-7 -90 -1 82 c-3 134 34 193 120 193 36 0 78 23 78 44 0 21 -68 46 -133
48 -60 1 -60 1 -17 7 l45 6 -98 48 c-55 26 -101 47 -103 47 -2 0 -4 -22 -4
-49z m121 -665 c-11 -24 -16 32 -11 131 l5 108 5 -115 c3 -63 3 -119 1 -124z
m100 161 c14 -10 14 -14 3 -25 -12 -11 -14 -9 -14 7 0 11 -6 22 -12 24 -7 3
-8 6 -3 6 6 0 17 -5 26 -12z m36 -39 c-3 -8 -6 -5 -6 6 -1 11 2 17 5 13 3 -3
4 -12 1 -19z m-61 -27 c-10 -11 -15 -25 -11 -30 8 -13 -24 -14 -44 -2 -18 12
-6 30 17 24 10 -2 24 3 31 11 8 9 16 16 19 16 3 0 -3 -9 -12 -19z m54 6 c0 -2
-10 -12 -22 -23 l-23 -19 19 23 c18 21 26 27 26 19z m-170 -41 c0 -2 -7 -6
-15 -10 -8 -3 -15 -1 -15 4 0 6 7 10 15 10 8 0 15 -2 15 -4z m115 -76 c-4 -11
-2 -20 4 -20 6 0 8 -7 4 -15 -3 -9 -8 -13 -12 -10 -10 10 -9 65 1 65 5 0 6 -9
3 -20z m45 16 c0 -2 -8 -10 -17 -17 -16 -13 -17 -12 -4 4 13 16 21 21 21 13z
m-96 -52 c27 -10 18 -21 -14 -16 -16 2 -27 8 -24 13 6 11 16 11 38 3z m106 -8
c0 -3 -4 -8 -10 -11 -5 -3 -10 -1 -10 4 0 6 5 11 10 11 6 0 10 -2 10 -4z m-86
-222 c3 -8 2 -12 -4 -9 -6 3 -10 10 -10 16 0 14 7 11 14 -7z"/>
<path d="M2752 3924 c1 -12 7 -20 13 -18 16 7 16 41 0 41 -9 0 -14 -9 -13 -23z"/>
<path d="M2820 3915 c-10 -12 -7 -15 14 -21 14 -3 26 -10 26 -15 0 -5 -12 -4
-27 1 -25 9 -26 8 -11 -3 10 -8 14 -18 10 -22 -4 -5 1 -5 11 -2 19 7 24 -8 5
-17 -7 -4 5 -4 26 -1 22 2 46 11 54 19 13 13 13 18 -2 41 -14 22 -23 26 -44
21 -20 -5 -23 -4 -12 4 12 8 10 10 -11 10 -15 0 -32 -7 -39 -15z"/>
<path d="M1916 3882 c-63 -15 -59 -69 5 -85 128 -32 147 -53 159 -177 6 -56 7
-33 6 95 l-1 170 -70 2 c-38 0 -83 -2 -99 -5z"/>
<path d="M1783 3838 c-95 -46 -107 -71 -51 -98 66 -31 68 -39 68 -307 1 -240
1 -242 23 -249 21 -7 21 -7 2 -14 -16 -6 -20 -16 -20 -54 -1 -43 1 -47 20 -42
11 3 26 6 33 6 7 0 11 4 8 9 -4 5 4 7 16 4 13 -3 20 -2 15 2 -9 11 43 34 61
27 10 -4 11 -7 2 -12 -9 -6 -9 -12 1 -28 12 -20 15 -20 31 -5 10 9 18 12 18 7
-1 -13 -49 -46 -58 -40 -4 2 -6 -11 -4 -30 3 -21 10 -34 19 -34 10 0 12 -6 8
-19 -16 -50 -14 -80 7 -86 11 -4 18 -9 15 -11 -2 -2 -22 4 -45 14 -37 17 -39
19 -21 30 16 10 17 15 7 32 -8 12 -23 19 -38 19 -23 -2 -24 -2 -2 -6 12 -2 22
-9 22 -14 0 -11 -3 -11 -34 1 -17 6 -26 6 -26 0 0 -6 5 -10 12 -10 6 0 9 -2 6
-5 -8 -9 -58 6 -58 16 0 5 7 9 17 9 9 0 35 11 59 25 33 19 42 30 39 46 -3 12
-7 24 -11 28 -3 3 -4 -3 -2 -13 2 -15 -3 -20 -23 -21 -18 -1 -26 3 -25 14 1
16 -20 22 -39 12 -5 -3 -14 -6 -19 -6 -5 0 -11 -10 -12 -22 -2 -13 1 -23 6
-23 7 0 8 -18 4 -50 -4 -31 -3 -50 3 -50 6 0 10 -17 9 -37 -1 -35 2 -38 27
-41 20 -2 27 -8 23 -17 -3 -8 3 -19 12 -25 16 -11 15 -11 -1 -6 -10 3 -21 6
-23 6 -2 0 -4 7 -4 15 0 8 -6 15 -14 15 -12 0 -12 -8 2 -50 11 -34 20 -49 29
-46 9 4 12 -2 9 -18 -2 -14 1 -23 7 -23 7 0 30 -1 52 -3 l40 -3 -47 -6 -48 -6
20 -33 c20 -32 23 -33 63 -27 23 4 44 11 45 16 2 5 12 9 22 9 10 0 21 6 23 13
3 6 4 -8 2 -31 -4 -53 -38 -96 -69 -86 -13 4 0 -14 34 -50 l53 -56 114 0 115
0 -55 50 c-112 102 -157 205 -167 380 l-7 115 -1 -152 c-1 -84 -6 -153 -10
-153 -5 0 -8 12 -7 28 1 25 -1 27 -37 27 -21 0 -38 -4 -38 -9 0 -4 -8 -2 -17
5 -13 11 -15 11 -9 1 7 -11 4 -11 -12 -1 -27 17 -20 27 15 23 15 -1 31 3 35 9
6 9 10 8 18 -3 8 -13 11 -13 22 -1 11 11 11 13 -1 6 -10 -6 -12 -4 -7 4 6 9
11 9 21 1 9 -8 12 -5 11 12 -1 19 -8 24 -41 29 -22 3 -29 7 -16 8 16 1 21 6
18 15 -4 10 -1 13 9 9 7 -3 14 -10 15 -17 0 -6 5 2 9 18 11 35 6 46 -23 47
-21 0 -21 1 -2 8 11 5 22 7 26 5 10 -6 5 71 -6 82 -9 9 -14 7 -23 -7 -14 -21
-15 -29 -6 -28 8 1 24 -22 24 -36 0 -5 -5 -4 -12 3 -7 7 -23 12 -36 12 l-24 0
31 35 c17 20 31 41 31 48 0 7 5 4 11 -5 5 -10 16 -18 24 -18 13 0 14 10 6 89
0 8 -10 2 -23 -15 -32 -42 -42 -52 -29 -27 6 12 16 25 21 28 6 4 8 10 5 15 -3
4 2 11 11 14 9 4 14 13 10 22 -3 8 -2 13 3 10 5 -3 8 12 8 34 0 21 -4 37 -9
34 -4 -3 -8 1 -8 10 0 8 13 17 30 21 37 8 49 25 18 26 -13 1 -27 1 -32 0 -14
-3 -46 10 -46 19 0 9 18 8 35 -1 18 -10 40 -3 37 11 -3 12 0 12 15 -1 10 -9
31 -14 48 -13 42 4 116 34 110 44 -3 5 7 10 22 12 14 2 28 9 31 17 3 10 -2 11
-19 6 -23 -7 -23 -7 -4 8 20 15 20 16 -3 24 -21 8 -22 10 -8 22 13 11 16 11
16 1 0 -8 3 -11 6 -7 7 6 -25 68 -41 79 -24 18 -24 5 1 -27 14 -19 25 -35 23
-36 -2 0 -17 -3 -33 -5 -27 -5 -27 -4 -12 12 15 15 16 19 3 31 -12 12 -19 13
-37 3 -12 -7 -20 -8 -16 -2 3 5 -1 13 -10 16 -23 9 -24 8 -24 -24 0 -19 -5
-30 -14 -30 -22 0 -66 -26 -58 -35 4 -5 -1 -5 -11 -2 -10 4 -23 7 -28 7 -4 0
-6 7 -2 16 5 13 7 13 14 2 6 -9 9 -2 9 20 0 19 -5 32 -12 32 -10 0 -10 2 -1 8
14 9 14 112 1 112 -4 0 -8 -4 -8 -9 0 -5 -13 -14 -30 -19 -21 -8 -28 -15 -24
-27 4 -9 3 -15 -2 -14 -21 4 -23 -2 -9 -24 8 -13 12 -27 8 -30 -3 -4 -14 4
-23 19 -14 21 -18 22 -23 10 -4 -9 -11 -16 -17 -16 -8 0 -8 6 0 19 8 15 7 22
-5 28 -12 7 -11 11 7 22 18 11 20 11 15 -4 -4 -9 -3 -14 3 -10 13 8 13 42 -1
50 -6 4 -8 14 -5 22 3 8 1 23 -4 34 -7 13 -7 19 0 19 5 0 10 -7 10 -15 0 -13
6 -11 29 6 32 24 62 20 60 -8 -1 -17 -2 -17 -6 0 -6 21 -22 22 -51 1 -25 -17
-30 -54 -7 -54 8 0 15 -5 15 -11 0 -5 -4 -7 -10 -4 -5 3 -10 1 -10 -4 0 -17
18 -13 29 7 6 9 11 11 11 5 0 -7 4 -13 10 -13 5 0 7 8 4 18 -5 13 -4 14 4 3
17 -24 26 90 12 148 -15 63 -31 77 -114 98 -72 17 -92 36 -83 79 2 13 4 24 3
23 0 0 -38 -19 -83 -41z m158 -269 l24 -20 -28 17 c-15 9 -36 14 -47 11 -11
-3 -18 -1 -14 4 9 15 41 10 65 -12z m-24 -106 c9 -7 13 -13 7 -13 -15 0 -64
46 -57 54 4 4 13 -1 20 -11 8 -10 21 -24 30 -30z m133 23 c0 -11 -19 -15 -25
-6 -3 5 1 10 9 10 9 0 16 -2 16 -4z m-226 -92 c3 -8 2 -12 -4 -9 -6 3 -10 10
-10 16 0 14 7 11 14 -7z m441 6 c3 -5 2 -10 -4 -10 -5 0 -13 5 -16 10 -3 6 -2
10 4 10 5 0 13 -4 16 -10z m-315 -10 c0 -5 -5 -10 -11 -10 -5 0 -7 5 -4 10 3
6 8 10 11 10 2 0 4 -4 4 -10z m90 -36 c-47 -9 -97 -8 -94 1 3 6 26 8 57 6 28
-3 45 -6 37 -7z m237 -10 c-3 -3 -12 -4 -19 -1 -8 3 -5 6 6 6 11 1 17 -2 13
-5z m-87 -39 c0 -19 -2 -35 -4 -35 -2 0 -6 16 -8 35 -2 19 0 35 4 35 4 0 8
-16 8 -35z m-40 0 c13 -14 21 -25 18 -25 -2 0 -15 11 -28 25 -13 14 -21 25
-18 25 2 0 15 -11 28 -25z m85 15 c3 -6 -1 -7 -9 -4 -18 7 -21 14 -7 14 6 0
13 -4 16 -10z m-302 -7 c-7 -2 -19 -2 -25 0 -7 3 -2 5 12 5 14 0 19 -2 13 -5z
m94 -20 c-4 -3 -2 -12 4 -19 7 -8 7 -14 -1 -19 -6 -3 -8 -11 -5 -16 4 -5 -7
-9 -24 -9 -16 0 -33 -5 -36 -10 -5 -8 -11 -8 -19 -1 -7 6 -15 9 -17 6 -3 -2
-27 -6 -54 -9 -69 -6 -34 10 40 19 33 4 69 8 80 9 13 1 20 9 21 24 2 29 3 32
11 32 3 0 3 -3 0 -7z m-122 -21 c-3 -3 -11 0 -18 7 -9 10 -8 11 6 5 10 -3 15
-9 12 -12z m191 6 c3 -4 -1 -5 -10 -4 -8 1 -18 5 -22 8 -3 4 1 5 10 4 8 -1 18
-5 22 -8z m-209 -94 c-3 -3 -12 -4 -19 -1 -8 3 -5 6 6 6 11 1 17 -2 13 -5z
m168 -34 c-3 -5 -13 -10 -22 -10 -9 0 -24 -7 -33 -15 -15 -14 -18 -14 -23 -1
-4 10 -1 13 9 9 7 -3 14 0 14 5 0 9 12 14 53 21 5 0 5 -3 2 -9z m-40 -190 c-3
-5 -12 -10 -18 -10 -7 0 -6 4 3 10 19 12 23 12 15 0z m-128 -66 c-3 -3 -12 -4
-19 -1 -8 3 -5 6 6 6 11 1 17 -2 13 -5z m87 -138 c-3 -8 -15 -16 -27 -19 -12
-2 -31 -7 -42 -11 -11 -3 -2 2 19 13 l40 19 -30 5 c-26 4 -25 4 8 6 28 1 36
-2 32 -13z"/>
<path d="M2770 3858 c0 -19 -2 -20 -10 -8 -7 11 -10 4 -10 -26 0 -40 22 -74
48 -74 29 0 44 88 18 109 -11 10 -15 8 -19 -6 -4 -14 -5 -13 -6 5 0 12 -5 22
-11 22 -5 0 -10 -10 -10 -22z"/>
<path d="M2950 3865 c0 -9 -12 -21 -27 -27 -38 -16 -37 -16 -23 -33 8 -9 29
-15 56 -15 l44 0 0 45 c0 41 -2 45 -25 45 -16 0 -25 -6 -25 -15z"/>
<path d="M2180 3786 c0 -67 2 -74 19 -69 12 3 28 -7 50 -33 17 -21 31 -33 31
-27 0 19 60 12 70 -8 15 -27 12 -35 -4 -13 -8 10 -18 16 -22 12 -4 -4 -13 -3
-21 3 -10 9 -13 6 -13 -15 0 -14 -5 -26 -11 -26 -12 0 -5 -28 17 -75 8 -16 11
-31 6 -33 -5 -1 -4 -18 2 -37 6 -20 16 -33 22 -31 7 3 9 -5 6 -20 -2 -13 0
-24 7 -24 5 0 8 -7 5 -15 -8 -19 15 -48 32 -41 7 3 15 0 17 -7 3 -9 15 -7 43
6 36 18 37 20 20 32 -10 8 -16 20 -13 27 4 10 6 10 6 1 1 -7 7 -13 15 -13 8 0
16 -5 18 -11 5 -16 74 19 87 45 8 15 10 16 6 3 -4 -14 0 -17 13 -15 9 2 16 9
15 15 -1 6 6 9 18 6 20 -5 20 -4 9 18 -13 24 -13 24 7 6 21 -18 108 -22 96 -4
-7 12 30 4 39 -8 4 -5 2 -13 -5 -17 -8 -5 -4 -8 9 -8 22 0 25 17 9 55 -10 24
-25 35 -45 34 -9 0 -5 -6 10 -14 14 -8 23 -15 20 -15 -51 -12 -71 -1 -63 33 4
18 3 19 -6 7 -9 -13 -11 -13 -11 2 0 9 -5 20 -11 24 -16 10 -2 -35 22 -68 11
-16 15 -28 9 -28 -15 0 -50 61 -50 89 0 13 -3 21 -7 18 -3 -4 -12 -2 -20 4 -7
6 -13 8 -13 3 0 -4 -6 0 -13 10 -13 17 -15 17 -45 2 -38 -20 -39 -24 -10 -62
l22 -29 -25 23 c-14 12 -29 19 -33 15 -4 -4 -4 0 0 10 8 21 1 21 -36 2 -31
-16 -42 -32 -14 -21 9 3 12 2 9 -5 -4 -6 -18 -15 -32 -20 -16 -6 -23 -15 -20
-24 4 -8 -2 -17 -14 -20 -14 -5 -19 -13 -16 -26 3 -12 1 -17 -6 -12 -7 4 -8 0
-4 -11 5 -11 3 -15 -5 -10 -8 5 -9 2 -5 -9 3 -9 2 -19 -3 -22 -23 -14 -7 47
24 94 33 49 34 53 34 152 0 56 -4 96 -8 89 -5 -9 -9 -9 -14 -1 -4 6 -19 11
-34 11 -41 0 -54 13 -50 51 3 32 -1 37 -60 76 -35 24 -68 43 -73 43 -5 0 -9
-33 -9 -74z m139 -237 c9 -27 9 -30 -4 -19 -8 7 -15 21 -15 31 0 28 7 23 19
-12z m81 23 c0 -5 -7 -17 -15 -28 -14 -18 -14 -18 -15 4 0 13 4 20 10 17 6 -3
10 -1 10 4 0 6 2 11 5 11 3 0 5 -4 5 -8z m-53 -34 c-3 -8 -6 -5 -6 6 -1 11 2
17 5 13 3 -3 4 -12 1 -19z m253 -55 c-11 -17 -11 -17 -6 0 3 10 7 28 7 40 2
22 2 22 6 0 2 -12 -1 -30 -7 -40z m-52 -15 c2 -8 -13 -27 -32 -42 -20 -15 -33
-20 -30 -13 3 8 16 19 30 25 29 14 32 42 4 42 -11 0 -20 4 -20 10 0 15 45 -5
48 -22z m-217 5 c13 -16 12 -17 -3 -4 -10 7 -18 15 -18 17 0 8 8 3 21 -13z
m332 2 c4 -8 2 -17 -3 -20 -6 -4 -10 3 -10 14 0 25 6 27 13 6z m-73 -20 c7 -9
8 -15 2 -15 -5 0 -12 7 -16 15 -3 8 -4 15 -2 15 2 0 9 -7 16 -15z"/>
<path d="M2854 3812 c-14 -10 -39 -74 -36 -90 3 -10 -1 -11 -17 -3 -11 6 -26
11 -33 10 -7 0 -3 -5 10 -11 30 -15 28 -30 -3 -18 -25 9 -25 9 -25 -45 0 -51
7 -65 23 -48 12 12 58 9 69 -4 11 -14 32 -18 24 -5 -3 5 1 9 9 9 12 0 12 -3 2
-16 -9 -12 -9 -13 0 -7 13 7 93 -13 93 -24 0 -16 -14 -18 -36 -3 -17 11 -24
12 -24 3 0 -10 -3 -10 -15 0 -8 7 -15 9 -15 4 0 -5 -5 -2 -10 6 -8 13 -11 12
-25 -5 -8 -11 -15 -15 -14 -10 4 22 -13 43 -32 38 -20 -5 -24 -15 -12 -26 3
-4 13 -1 21 6 10 7 13 8 9 1 -9 -15 13 -32 35 -29 10 2 16 -2 15 -8 -1 -7 3
-11 10 -10 6 1 17 -4 23 -12 15 -18 44 -20 34 -2 -4 6 4 0 19 -15 29 -31 47
-36 47 -13 0 8 -6 15 -12 15 -9 0 -8 4 2 10 13 9 13 10 0 10 -11 0 -12 3 -3 8
8 5 11 44 10 127 l-2 120 -49 6 c-30 3 -52 11 -58 22 -10 19 -17 21 -34 9z
m11 -22 c-4 -12 -1 -27 5 -35 16 -19 4 -50 -27 -70 -18 -12 -22 -19 -13 -25 8
-5 1 -9 -17 -12 -20 -3 -30 0 -30 9 0 6 4 10 8 7 5 -3 25 11 46 30 34 32 37
37 25 56 -12 19 -9 60 4 60 3 0 2 -9 -1 -20z m103 -181 c-3 -8 -7 -3 -11 10
-4 17 -3 21 5 13 5 -5 8 -16 6 -23z"/>
<path d="M2383 3738 c-4 -7 -1 -8 7 -3 8 5 11 3 8 -6 -3 -8 -11 -13 -17 -11
-7 1 -10 -2 -6 -8 3 -5 17 -10 31 -10 19 0 23 4 21 22 -4 23 -33 33 -44 16z"/>
<path d="M2194 3698 c-4 -6 -9 -38 -10 -69 -2 -46 1 -61 17 -75 18 -17 21 -17
34 -1 8 9 10 12 3 7 -18 -15 -28 -12 -22 5 4 8 1 15 -6 15 -7 0 -10 8 -7 20 3
12 1 18 -5 14 -6 -4 -8 -1 -6 7 3 8 12 13 20 11 20 -3 41 43 25 56 -26 19 -36
22 -43 10z"/>
<path d="M2248 3626 c-2 -21 -1 -39 3 -42 11 -7 20 45 11 63 -7 12 -10 7 -14
-21z"/>
<path d="M2184 3520 c0 -16 3 -27 8 -24 5 3 6 11 2 17 -6 13 13 -9 35 -41 17
-25 61 -36 61 -15 0 8 -5 11 -12 7 -8 -5 -9 0 -5 16 4 16 1 23 -13 27 -12 3
-17 11 -13 21 4 14 3 15 -6 2 -7 -10 -6 -19 5 -31 7 -8 14 -22 14 -30 0 -8 -8
0 -19 16 -10 17 -27 38 -38 47 -19 17 -19 17 -19 -12z"/>
<path d="M2804 3433 c1 -38 1 -38 -34 -34 -19 1 -38 8 -41 13 -8 13 -96 5
-110 -9 -11 -11 2 -13 84 -12 37 0 57 -4 57 -12 0 -7 -10 -9 -28 -6 -34 7 -63
-7 -37 -17 9 -3 24 -6 34 -6 11 0 17 -9 19 -26 3 -37 11 -47 27 -34 8 6 16 7
19 2 3 -5 17 -7 31 -4 15 2 25 0 25 -7 0 -6 -16 -11 -36 -11 -33 0 -36 -2 -31
-22 6 -23 6 -23 -12 1 l-18 24 0 -56 c0 -41 3 -57 13 -57 24 0 26 -20 2 -29
-21 -9 -20 -10 13 -10 33 -1 59 13 59 31 0 5 -12 20 -26 33 l-27 25 29 0 c16
0 24 -4 17 -8 -8 -5 -4 -16 12 -37 l24 -29 21 27 c12 15 30 27 41 27 15 0 19
-7 19 -35 0 -24 5 -35 15 -35 8 0 15 -9 15 -21 0 -11 5 -17 10 -14 6 3 10 33
10 67 0 49 3 59 15 54 16 -6 19 3 9 28 -5 14 -9 13 -31 -4 -26 -20 -73 -27
-73 -11 0 4 10 6 23 4 14 -3 30 4 45 20 19 20 22 31 16 65 -4 28 -10 39 -20
35 -7 -2 -18 -2 -24 2 -19 11 8 34 33 27 13 -3 18 -1 14 4 -5 5 -12 9 -15 9
-4 1 -17 6 -28 13 -12 6 -24 8 -28 5 -3 -3 -6 -1 -6 6 0 9 -10 12 -30 9 -22
-3 -27 -2 -19 8 7 9 2 15 -18 22 -15 5 -35 13 -44 17 -14 5 -16 -1 -15 -32z
m158 -47 c7 4 8 2 4 -4 -4 -6 -13 -9 -21 -6 -8 4 -12 11 -8 17 5 8 8 7 11 -1
2 -7 9 -9 14 -6z m-122 -32 c0 -2 -17 -4 -37 -4 -24 0 -33 3 -25 9 12 7 62 4
62 -5z m11 -27 c-10 -9 -11 -8 -5 6 3 10 9 15 12 12 3 -3 0 -11 -7 -18z m89
-6 c0 -6 -4 -12 -8 -15 -5 -3 -9 1 -9 9 0 8 4 15 9 15 4 0 8 -4 8 -9z m-42
-36 c-3 -3 -9 2 -12 12 -6 14 -5 15 5 6 7 -7 10 -15 7 -18z m19 -37 c-3 -7 -5
-2 -5 12 0 14 2 19 5 13 2 -7 2 -19 0 -25z m-63 -14 c5 -14 4 -15 -9 -4 -17
14 -19 20 -6 20 5 0 12 -7 15 -16z"/>
<path d="M3022 3298 c-2 -32 1 -40 22 -49 36 -17 76 -4 76 24 0 39 -28 68 -63
65 -29 -2 -32 -5 -35 -40z m51 -8 c10 -12 9 -12 -5 -2 -13 10 -17 10 -20 0 -3
-8 -6 -7 -10 4 -8 20 17 18 35 -2z"/>
<path d="M2410 3239 c0 -5 -4 -8 -8 -5 -4 2 -14 1 -22 -4 -12 -7 -10 -14 10
-36 l25 -27 -33 23 -32 24 -65 -32 c-52 -25 -64 -36 -68 -59 l-4 -28 -2 29
c-2 48 -31 13 -31 -38 1 -36 2 -39 13 -21 13 22 42 33 34 13 -2 -7 -10 -12
-17 -10 -8 2 -11 -4 -7 -18 3 -11 2 -22 -3 -25 -11 -7 -11 -293 1 -300 5 -4 9
-16 9 -27 0 -30 33 -95 70 -140 26 -31 35 -36 50 -28 16 8 18 7 15 -9 -2 -11
4 -25 13 -33 19 -15 59 -38 67 -38 2 0 4 43 4 96 l0 96 -27 -23 -27 -24 27 30
26 30 1 234 c0 143 -4 242 -11 254 -5 11 -6 17 -1 14 5 -3 10 17 11 44 1 27
-2 49 -8 49 -5 0 -10 -5 -10 -11z m-120 -152 c0 -16 3 -18 12 -9 11 11 48 17
48 8 0 -2 3 -13 6 -23 5 -17 5 -17 -6 0 -14 21 -39 22 -46 2 -10 -25 -22 -17
-26 19 -2 19 0 32 4 30 4 -3 8 -15 8 -27z m-25 -54 c-4 -21 -8 -42 -10 -48 -1
-5 -6 -25 -10 -42 -8 -34 -24 -45 -26 -18 -2 23 -4 29 -12 42 -4 6 -3 14 3 18
6 4 8 11 4 16 -3 5 -2 9 3 8 26 -5 35 3 31 26 -3 13 -1 22 3 19 5 -3 9 0 9 5
0 6 3 11 6 11 3 0 3 -17 -1 -37z m45 -27 c0 -2 -8 -10 -17 -17 -16 -13 -17
-12 -4 4 13 16 21 21 21 13z m47 -38 c-3 -8 -6 -5 -6 6 -1 11 2 17 5 13 3 -3
4 -12 1 -19z m19 -96 c-17 -16 -18 -16 -5 5 7 12 15 20 18 17 3 -2 -3 -12 -13
-22z m-111 -5 c3 -4 2 -5 -2 -2 -23 17 -46 -58 -24 -80 6 -6 4 -17 -5 -29 -13
-18 -14 -17 -14 18 0 20 -4 35 -8 32 -10 -6 -8 31 2 56 8 17 40 20 51 5z m35
-10 c0 -2 -10 -13 -23 -25 -18 -17 -24 -19 -24 -8 0 8 4 13 8 11 3 -3 12 2 19
10 12 14 20 19 20 12z m10 -35 c0 -5 -7 -17 -15 -28 -14 -18 -14 -17 -4 9 12
27 19 34 19 19z m96 -22 c-10 -3 -16 -8 -15 -10 4 -8 -25 -50 -35 -50 -6 0 -5
5 2 12 7 7 12 16 12 22 0 6 -5 5 -12 -2 -15 -15 -28 -16 -28 -2 0 6 3 9 8 9
20 -3 23 3 11 19 -13 15 -12 16 4 3 16 -12 20 -12 34 2 9 9 21 13 27 10 5 -4
2 -9 -8 -13z m-104 -53 c-18 -10 -20 -15 -10 -26 7 -7 9 -12 3 -11 -22 5 -45
-1 -45 -10 0 -5 8 -7 18 -4 14 5 14 4 2 -4 -8 -6 -18 -8 -22 -6 -12 8 -9 -10
4 -26 10 -12 9 -11 -4 0 -23 20 -36 74 -17 68 8 -3 27 4 44 14 16 10 35 18 40
18 6 -1 0 -6 -13 -13z m-20 -161 c-6 -10 -20 20 -21 44 0 8 6 4 13 -10 8 -14
12 -29 8 -34z m55 7 c-3 -10 -5 -4 -5 12 0 17 2 24 5 18 2 -7 2 -21 0 -30z"/>
<path d="M2221 2986 c-8 -10 -9 -16 -1 -21 5 -3 13 1 16 10 9 22 -1 29 -15 11z"/>
<path d="M3037 3216 c6 -30 53 -55 53 -28 0 24 -12 38 -36 46 -18 6 -21 3 -17
-18z"/>
<path d="M2887 3141 c-26 -39 -27 -54 -2 -44 8 2 11 11 8 19 -3 8 0 14 6 14 6
0 11 8 11 17 0 11 3 14 10 7 5 -5 6 -24 0 -47 -7 -32 -6 -37 6 -33 12 5 12 2
3 -15 -8 -17 -8 -20 1 -14 9 5 10 1 5 -16 l-7 -24 16 22 c9 12 19 35 22 52 5
26 4 29 -13 25 -16 -5 -18 0 -15 35 5 54 -16 55 -51 2z"/>
<path d="M2845 3130 c3 -5 8 -10 11 -10 2 0 4 5 4 10 0 6 -5 10 -11 10 -5 0
-7 -4 -4 -10z"/>
<path d="M2790 3111 l-35 -6 -2 -137 c-1 -76 2 -136 7 -135 5 1 47 -49 94
-111 l85 -113 15 30 c26 49 46 141 46 206 0 60 0 60 -83 167 -45 59 -84 107
-87 106 -3 0 -21 -3 -40 -7z"/>
<path d="M1912 3092 c-7 -5 -10 -16 -7 -24 4 -9 1 -19 -6 -24 -8 -4 -10 -3 -5
4 9 15 -2 34 -14 27 -13 -8 9 -52 24 -52 7 0 13 7 12 16 0 9 5 15 13 13 9 -2
11 3 7 14 -6 15 -4 15 10 3 16 -13 16 -12 5 9 -13 24 -19 26 -39 14z"/>
<path d="M2975 3060 c-3 -5 1 -10 9 -10 9 0 16 5 16 10 0 6 -4 10 -9 10 -6 0
-13 -4 -16 -10z"/>
<path d="M1820 3049 c0 -5 5 -7 10 -4 6 3 10 8 10 11 0 2 -4 4 -10 4 -5 0 -10
-5 -10 -11z"/>
<path d="M2990 3026 c0 -9 -6 -19 -14 -22 -8 -3 -12 -13 -9 -25 5 -20 25 -16
22 4 -1 7 1 20 6 30 4 10 5 21 1 24 -3 4 -6 -1 -6 -11z"/>
<path d="M2985 2951 c-3 -5 -1 -12 5 -16 5 -3 10 1 10 9 0 18 -6 21 -15 7z"/>
<path d="M2750 2789 c0 -31 0 -32 20 -14 11 10 20 19 20 21 0 2 -9 8 -20 14
-18 10 -20 8 -20 -21z"/>
<path d="M2766 2755 c-15 -11 -16 -15 -5 -16 8 0 26 -2 41 -4 25 -3 27 -2 18
16 -13 23 -28 24 -54 4z"/>
<path d="M2768 2703 c12 -8 22 -24 22 -35 0 -10 5 -16 10 -13 6 3 10 1 10 -4
0 -14 37 -51 44 -44 3 3 0 15 -6 27 -10 20 -9 20 15 -2 22 -21 24 -28 15 -53
-8 -23 -16 -29 -32 -27 -11 2 -26 -3 -32 -11 -11 -15 -54 -7 -54 10 0 6 7 6
19 -1 15 -8 22 -7 28 4 4 7 19 13 33 12 16 -1 26 5 28 17 3 15 -1 17 -23 11
-18 -4 -30 -2 -36 7 -7 11 -9 10 -9 -3 0 -10 -5 -18 -11 -18 -7 0 -9 11 -6 28
3 15 0 35 -8 46 -14 18 -14 18 -15 0 0 -11 -3 -61 -6 -111 -3 -51 -1 -93 3
-93 19 0 100 59 137 100 l39 43 -35 31 c-41 36 -62 71 -52 89 5 9 4 9 -7 0
-14 -14 -63 -18 -55 -5 2 4 -5 8 -17 9 l-22 1 23 -15z"/>
<path d="M2022 2588 c-10 -10 -28 -14 -70 -17 -10 -1 -10 -5 0 -21 16 -26 50
-35 78 -20 18 10 19 14 8 28 -7 9 -8 13 -2 9 10 -6 24 12 24 29 0 9 -27 3 -38
-8z"/>
<path d="M2925 2453 c-51 -48 -127 -93 -197 -117 -14 -4 -18 -17 -18 -56 0
-58 -2 -58 99 -30 86 24 133 47 217 102 l62 41 -46 56 c-25 31 -48 57 -51 58
-3 1 -33 -23 -66 -54z"/>
<path d="M2129 2369 c49 -40 148 -88 235 -113 48 -14 92 -26 97 -26 5 0 9 24
9 53 l0 54 -42 13 c-24 7 -52 18 -63 26 -14 10 -53 14 -140 14 l-120 -1 24
-20z"/>
<path d="M3150 1948 c-5 -7 -31 -42 -57 -78 -60 -83 -184 -232 -189 -227 -2 2
14 65 36 139 22 75 40 141 40 147 0 6 -15 11 -34 11 -29 0 -43 -9 -90 -61 -91
-98 -266 -336 -266 -361 0 -4 12 -8 28 -7 22 0 35 13 74 72 62 94 198 270 205
263 3 -2 -2 -26 -11 -53 -9 -26 -29 -99 -45 -161 -29 -111 -29 -112 -10 -123
26 -13 31 -9 140 118 115 134 229 286 229 305 0 9 -7 19 -16 22 -21 8 -22 8
-34 -6z"/>
<path d="M2094 1935 c-3 -8 -9 -13 -13 -10 -20 12 -133 -141 -195 -262 -22
-44 -32 -54 -67 -64 -37 -12 -66 -39 -53 -52 4 -3 17 -1 31 4 14 5 28 8 30 5
2 -2 -6 -33 -18 -68 -23 -65 -21 -98 5 -98 9 0 23 25 37 68 37 113 41 118 105
131 32 6 60 11 64 11 4 0 0 -36 -8 -80 -8 -45 -12 -83 -9 -86 13 -13 47 20 56
54 8 30 51 272 75 420 4 28 -31 52 -40 27z m-35 -177 l-21 -105 -55 -13 c-30
-6 -56 -10 -59 -8 -5 6 85 157 122 205 14 19 28 33 30 30 2 -2 -6 -51 -17
-109z"/>
<path d="M1639 1843 c-22 -5 -69 -111 -128 -290 -45 -134 -70 -191 -57 -133 3
14 8 75 11 135 3 61 8 129 11 153 6 37 4 42 -13 42 -61 0 -99 -95 -159 -389
-39 -192 -41 -256 -9 -256 22 0 26 15 44 160 12 89 57 298 70 323 4 7 5 -66 3
-163 -4 -173 -4 -175 16 -175 28 0 37 19 112 240 35 102 66 188 70 193 4 4 -4
-54 -16 -130 -30 -177 -30 -219 -4 -233 31 -17 56 3 90 70 33 65 37 92 17 108
-10 9 -17 1 -31 -38 -10 -27 -25 -55 -33 -62 -15 -12 -15 -6 -9 52 4 36 19
126 32 200 41 215 39 200 18 199 -11 -1 -26 -3 -35 -6z"/>
<path d="M3395 1812 c-72 -25 -143 -69 -195 -121 -55 -55 -80 -105 -80 -159 0
-33 6 -45 32 -67 29 -25 38 -27 94 -22 109 8 257 98 344 208 50 63 51 92 8
119 -18 11 -27 20 -20 20 18 0 15 27 -4 34 -31 12 -130 5 -179 -12z m110 -48
c-49 -17 -84 -50 -78 -75 6 -21 18 -25 29 -8 3 6 27 20 51 31 33 15 48 17 56
9 9 -9 -7 -29 -59 -79 -115 -111 -275 -180 -317 -137 -22 22 -21 43 3 83 53
87 185 175 286 191 62 10 78 2 29 -15z"/>
<path d="M3780 1649 c-37 -11 -80 -51 -80 -75 0 -8 7 -25 16 -38 15 -24 15
-24 -43 -41 -71 -21 -107 -45 -123 -84 -14 -36 0 -73 41 -103 75 -56 314 -15
327 56 7 34 -15 40 -47 13 -68 -57 -255 -63 -276 -9 -9 25 44 71 104 89 40 11
74 14 128 9 63 -6 74 -4 80 10 6 17 -9 31 -42 38 -11 3 -31 7 -45 10 -14 3
-36 15 -50 25 -23 19 -24 21 -8 37 31 31 197 31 185 -1 -7 -16 42 -38 75 -33
17 2 23 9 23 28 0 20 -10 30 -45 47 -52 26 -167 38 -220 22z"/>
<path d="M1080 1566 c0 -8 -6 -16 -14 -19 -25 -10 -86 -241 -86 -328 0 -20
-10 -38 -31 -56 -36 -33 -52 -59 -44 -73 4 -6 17 -2 33 11 l27 21 5 -76 c3
-41 10 -80 17 -87 24 -24 33 3 33 100 l0 98 55 36 c30 20 56 33 58 29 3 -4 10
-42 17 -84 7 -43 17 -78 21 -78 5 0 15 10 24 23 12 19 13 34 5 87 -12 71 -68
364 -76 393 -6 20 -44 23 -44 3z m24 -161 c22 -125 22 -126 -29 -157 l-45 -27
0 29 c0 55 45 258 55 248 2 -2 11 -44 19 -93z"/>
<path d="M4321 1304 c-29 -8 -104 -34 -167 -59 -62 -25 -118 -45 -124 -45 -6
0 -28 13 -48 30 -47 37 -108 63 -133 55 -20 -7 -35 -45 -26 -69 13 -33 78 -69
132 -74 52 -4 56 -7 100 -62 73 -90 149 -146 185 -135 21 7 27 25 9 25 -17 0
-190 173 -182 181 12 10 223 90 278 105 57 16 135 18 135 5 0 -12 -37 -21 -93
-21 -44 0 -48 -2 -45 -22 3 -21 8 -23 68 -23 85 1 125 20 125 60 0 58 -97 81
-214 49z m-376 -104 c3 -5 0 -10 -7 -10 -18 0 -58 28 -58 41 0 11 55 -15 65
-31z"/>
</g>
</svg>
