<?xml version="1.0" standalone="no"?>
<!DOCTYPE svg PUBLIC "-//W3C//DTD SVG 20010904//EN"
 "http://www.w3.org/TR/2001/REC-SVG-20010904/DTD/svg10.dtd">
<svg version="1.0" xmlns="http://www.w3.org/2000/svg"
 width="50.000000pt" height="50.000000pt" viewBox="0 0 50.000000 50.000000"
 preserveAspectRatio="xMidYMid meet">

<g transform="translate(0.000000,50.000000) scale(0.100000,-0.100000)"
fill="#000000" stroke="none">
<path d="M30 315 c0 -103 -4 -165 -10 -165 -5 0 -10 -4 -10 -10 0 -6 87 -10
240 -10 153 0 240 4 240 10 0 6 -4 10 -10 10 -6 0 -10 62 -10 165 l0 165 -220
0 -220 0 0 -165z m210 137 c0 -39 -35 -114 -65 -141 -44 -38 -52 -39 -27 -3
34 49 54 132 32 132 -5 0 -10 -10 -10 -22 -1 -32 -33 -99 -59 -122 -25 -23
-25 -22 -6 29 17 47 19 95 5 95 -5 0 -10 -11 -10 -25 0 -31 -29 -105 -41 -105
-5 0 -9 38 -9 85 l0 85 95 0 c52 0 95 -4 95 -8z m210 -77 c0 -47 -4 -85 -9
-85 -12 0 -41 74 -41 105 0 14 -4 25 -10 25 -14 0 -12 -48 5 -95 19 -51 19
-52 -6 -29 -26 23 -58 90 -59 122 0 12 -4 22 -10 22 -24 0 3 -104 37 -142 18
-20 18 -21 -2 -10 -34 17 -64 55 -80 101 -25 72 -26 71 80 71 l95 0 0 -85z
m-380 -151 c0 -19 5 -34 11 -34 7 0 10 14 7 35 -2 19 -1 35 2 35 10 0 30 -48
30 -70 0 -11 5 -20 10 -20 13 0 13 31 0 65 -9 23 -8 25 9 16 18 -10 51 -68 51
-90 0 -7 -26 -11 -70 -11 l-70 0 0 61 c0 37 4 58 10 54 6 -3 10 -22 10 -41z
m380 -14 l0 -60 -70 0 c-44 0 -70 4 -70 11 0 22 33 80 51 90 17 9 18 7 9 -16
-13 -34 -13 -65 0 -65 6 0 10 9 10 20 0 22 20 70 30 70 3 0 4 -16 2 -35 -3
-21 0 -35 7 -35 6 0 11 15 11 33 0 30 6 47 17 47 2 0 3 -27 3 -60z"/>
<path d="M32 98 c-7 -7 -12 -25 -12 -40 l0 -28 70 0 c70 0 70 0 70 28 0 15 -5
33 -12 40 -16 16 -100 16 -116 0z"/>
<path d="M192 98 c-7 -7 -12 -25 -12 -40 l0 -28 70 0 c70 0 70 0 70 28 0 15
-5 33 -12 40 -16 16 -100 16 -116 0z"/>
<path d="M352 98 c-7 -7 -12 -25 -12 -40 l0 -28 70 0 c70 0 70 0 70 28 0 15
-5 33 -12 40 -16 16 -100 16 -116 0z"/>
</g>
</svg>
